<svg xmlns="http://www.w3.org/2000/svg" viewBox="0 0 400 400"><defs><style>.cls-1{fill:#fff;}</style></defs><title>entitybase</title><path class="cls-1" d="M70.25,216.32h53.39a77.55,77.55,0,0,0,11.06,26.08L96.9,280.2A37,37,0,1,0,120,303.3l37.59-38a77.55,77.55,0,0,0,26.08,11.06v53.39a37,37,0,1,0,32.65,0V276.36a77.55,77.55,0,0,0,26.08-11.06L280.2,303.1A37,37,0,1,0,303.3,280l-38-37.59a77.55,77.55,0,0,0,11.06-26.08h53.39a37,37,0,1,0,0-32.65H276.36a77.55,77.55,0,0,0-11.06-26.08L303.1,119.8A37,37,0,1,0,280,96.7l-37.59,38a77.55,77.55,0,0,0-26.08-11.06V70.25a37,37,0,1,0-32.65,0v53.39a77.55,77.55,0,0,0-26.08,11.06L119.8,96.9A37,37,0,1,0,96.7,120l38,37.59a77.55,77.55,0,0,0-11.06,26.08H70.25a37,37,0,1,0,0,32.65ZM200,154.53A45.47,45.47,0,1,1,154.53,200h0A45.51,45.51,0,0,1,200,154.53Z" transform="translate(0 0)"/></svg>
